<svg id="レイヤー_1" data-name="レイヤー 1" xmlns="http://www.w3.org/2000/svg" viewBox="0 0 168.67 156.01"><title>providerIcon</title><path d="M161.2,170c-1.93,0-2.7-1.79-3.59-3.65-1.33-2.79-2.17-2.39-3.5-5.19s-1.85-2.56-3.18-5.36-.61-3.14-1.94-5.94-.12-3.37-1.45-6.16-2.67-2.16-4-5-2-2.49-3.32-5.29-2.17-2.4-3.5-5.2-.58-3.16-1.91-5.95.82-3.83-.51-6.63-3.09-2-4.42-4.77-.81-3-2.14-5.85-1.9-2.54-3.23-5.34-1.1-2.92-2.43-5.72-1.13-2.9-2.46-5.71-1.63-2.66-3-5.46-3.06-2-4.4-4.79,2.19-4.48.86-7.28-2.9-2.06-4.23-4.85S106,63.83,104.69,61s-.85-3-2.19-5.84-1.55-2.7-2.89-5.5-.27-3.32-1.6-6.13-2.76-2.13-4.1-4.94S95.63,32,92.52,32s-.44,3.61-1.77,6.41-3.67,1.69-5,4.49-.77,3.06-2.1,5.86-.78,3.06-2.11,5.85,1.17,4-.16,6.79-1.88,2.54-3.21,5.34S75,68.65,73.67,71.45s-2,2.48-3.34,5.28.37,3.6-1,6.4-.39,3.25-1.72,6.06-2,2.48-3.34,5.28S60.29,96,59,98.8s2.27,4.52.94,7.32-3.77,1.64-5.11,4.45.14,3.5-1.2,6.3-1.12,2.9-2.46,5.71-1.18,2.87-2.51,5.68-1.49,2.72-2.82,5.52-2.38,2.31-3.71,5.11,0,3.46-1.32,6.26-3.67,1.7-5,4.5-1,3-2.29,5.8-.85,3.05-2.18,5.86-1.35,2.81-2.69,5.62c-1.23,2.57-4.75,4.33-7.33,3.1s-4-5.35-2.8-7.92c1.32-2.78,1-3,2.28-5.72s2.11-2.4,3.43-5.17-.38-3.58.94-6.35,3.18-1.89,4.5-4.66.28-3.27,1.6-6,4.75-1.13,6.06-3.9-.35-3.57,1-6.34,1.25-2.8,2.57-5.58-.31-3.55,1-6.32,1.67-2.6,3-5.38,2-2.47,3.27-5.24,2.9-2,4.22-4.8-.39-3.59.93-6.36,1.58-2.66,2.9-5.43-.71-3.75.61-6.52,4.52-1.25,5.84-4-1.46-4.1-.14-6.88,3.83-1.58,5.16-4.36,1.6-2.64,2.92-5.42-.38-3.58.94-6.35,2.17-2.37,3.49-5.15,1-2.92,2.35-5.7,1.31-2.78,2.64-5.56,2.48-2.23,3.8-5-1.81-4.28-.48-7.06,2-2.45,3.36-5.23c.86-1.8,3.85-2.79,5.85-2.79.65.56-.11.53.54,1.09,2,0,1.86,1.16,2.72,3,1.32,2.78.83,3,2.15,5.78s5.28.89,6.6,3.67-1.68,4.2-.37,7,2.39,2.26,3.71,5,0,3.39,1.34,6.15S111,49,112.3,51.73s2.62,2.15,3.93,4.92-.73,3.75.59,6.52,2.76,2.09,4.08,4.86,3.41,1.78,4.73,4.55-.68,3.73.64,6.5-.64,3.71.68,6.48,1.9,2.5,3.22,5.27,2.77,2.09,4.09,4.87,2.06,2.42,3.38,5.2,2.65,2.14,4,4.92-1,3.86.36,6.63.63,3.11,1.95,5.89,1,2.94,2.29,5.72,3,2,4.31,4.75-.71,3.75.61,6.52,3.35,1.81,4.68,4.59,2.31,2.31,3.64,5.09-.14,3.47,1.19,6.25,2.52,2.22,3.85,5,1.59,2.66,2.92,5.44c1.23,2.58-.76,7.77-3.33,9C163.36,171,162,170,161.2,170Z" transform="translate(-8.57 -14.76)" style="fill:#e8382c"/><path d="M170.53,148.33c-3.14,0-3.14-3.28-6.29-3.28s-3.14,1-6.28,1-3.15.64-6.29.64-3.14.37-6.28.37-3.14-.54-6.27-.54-3.14-.79-6.28-.79-3.14-.44-6.29-.44-3.14,2.08-6.28,2.08S117.12,147,114,147s-3.14-2.54-6.28-2.54-3.15,2.2-6.29,2.2-3.15-1.9-6.29-1.9-3.14-.35-6.29-.35-3.14,2.3-6.29,2.3-3.15-2.07-6.29-2.07-3.15,1.89-6.3,1.89S66.81,148,63.66,148s-3.15-1.55-6.3-1.55S54.22,145,51.08,145s-3.15.26-6.29.26-3.15-.2-6.3-.2-3.15-.72-6.3-.72-3.15.54-6.3.54-3.16.18-6.31.18-3.16,2.67-6.32,2.67c-2.85,0-4.69-3.84-4.69-6.7s1.84-5.42,4.69-5.42c3.15,0,3.15.3,6.29.3s3.14-2,6.29-2,3.14,2.78,6.29,2.78,3.13-2.58,6.27-2.58,3.14,3.33,6.28,3.33,3.14-1.17,6.27-1.17,3.15-.27,6.29-.27,3.15-1.08,6.29-1.08,3.14,2.64,6.28,2.64,3.14-.91,6.28-.91,3.15,1.09,6.3,1.09,3.14-2,6.28-2,3.15.94,6.29.94,3.15-2,6.29-2,3.15,1.73,6.3,1.73,3.14-.59,6.29-.59,3.15,1.29,6.29,1.29,3.15-3.26,6.3-3.26,3.14-.33,6.28-.33,3.15,1,6.3,1,3.15.19,6.3.19,3.15,2.89,6.3,2.89,3.15-1.11,6.3-1.11,3.15-1.41,6.31-1.41h6.31c2.85,0,6.71,3,6.71,5.89S173.38,148.33,170.53,148.33Z" transform="translate(-8.57 -14.76)" style="fill:#e8382c"/><path d="M77,94.8l.85-.76A13.94,13.94,0,0,1,79,98.63a2.08,2.08,0,0,1-.13,1c-.46.94-2.07.63-2.48-.33a2.87,2.87,0,0,1,.76-2.88,2.39,2.39,0,0,1,.63,1.41c0,.53-.53,1.06-1,.89a1.07,1.07,0,0,1-.55-.52,3.49,3.49,0,0,1,1.24-4.59,6.52,6.52,0,0,1,1,4.53" transform="translate(-8.57 -14.76)" style="fill:#e8382c"/><path d="M79.91,97.39l.85-.76-6.58-1.41A12.78,12.78,0,0,1,75,97.7c.17.85-.13-.89.08.61.11.83-.06.15.18-.21l1.32-1.47a3.48,3.48,0,0,1,1.72-.25,1.64,1.64,0,0,1,1.4,1.27,1.25,1.25,0,0,1,.24,1.56L80,99l-6.13-.47c.7,1.12.87.28.53-2.49L76.1,95l.45-.09,1.94.43-.32-.21,1.48,1.32c-.48-.65,0,.16,0,.16,0,.22,0,.22,0,0s0-.23,0,.13-.19.16,0,0c-.14.13-.78.66-.12.24l-5.37-1.13c.24.43.29.5.14.21a6,6,0,0,1,.27.82c-.15-.69,0,1.13,0,.54a4,4,0,0,0,3,4.62c1.89.42,4.37-.85,4.62-2.94a11.17,11.17,0,0,0-1.51-7.49,3.92,3.92,0,0,0-5.37-1.12c-3.32,2.16-4.55,7-2.13,10.27a4.64,4.64,0,0,0,7.24.37,5.36,5.36,0,0,0,0-6.71c-1.4-1.92-4.49-2.51-6.13-.47a7,7,0,0,0-1.57,6.65,5.5,5.5,0,0,0,5.48,3.58,5.13,5.13,0,0,0,4.7-5.27,15.94,15.94,0,0,0-1.28-6C80.38,90,77.24,89.42,75,91.45l-.85.76c-1.55,1.4-1.14,4.19.3,5.48,1.7,1.52,3.91,1.11,5.48-.3Z" transform="translate(-8.57 -14.76)" style="fill:#e8382c"/><path d="M103,98.42a8.63,8.63,0,0,1-.87-2.76c-.07-.57,0-1.29.53-1.51s1.22.41,1.54,1A4.71,4.71,0,0,1,105,98a1.89,1.89,0,0,1-2.06,1.7c-.92-.22-1.35-1.27-1.54-2.2s0-2.59,1.09-2.65a1.4,1.4,0,0,1,1.3,1.23,4,4,0,0,1-.31,1.92" transform="translate(-8.57 -14.76)" style="fill:#e8382c"/><path d="M106.36,96.47c-.21-.43-.24-.5-.1-.22a7.32,7.32,0,0,1-.23-.8c-.1-.51-.11-.54,0-.08a4.34,4.34,0,0,1-.21.88l-1.39,1.39-.39.19H102l-.88-.52c-.23-.27-.26-.28-.1,0a.75.75,0,0,0,.13.25c.06.27.08.28,0,0l0-.28a2.1,2.1,0,0,1,2.91-1.13c1.13.44.58.29,1.14.76.28.23,0-.24-.1-.46.1.35,0,.53.07.09-.19,1.07-.73,2.38-2.39,2.2l-2-.53c-.76-.33-.66-2.61-1.11-1.26a3.91,3.91,0,0,0,2.71,4.77A4,4,0,0,0,107.22,99c.89-2.69.43-5.79-2.17-7.36a5,5,0,0,0-6.9,2c-2.29,4.21,1.15,11.2,6.46,9.73,5.6-1.56,5.3-9.65.9-12.42a4.72,4.72,0,0,0-7.07,2.75c-.61,2.22.26,4.66,1.23,6.64a3.87,3.87,0,1,0,6.69-3.91Z" transform="translate(-8.57 -14.76)" style="fill:#e8382c"/><path d="M76.9,119.23c1.35,2.7,3.91,5,7.14,4.44.11,0,2-.62,1.34-.57s1.7.28,1.7.28a27.84,27.84,0,0,0,6.15-.61c3-.68,5.8-.5,8.46-2.06s3.75-4,6-5.57c3.91-2.71.19-9.16-3.76-6.43-2.81,2-4.37,4.47-7.21,6.44l2.87-.37c-4.1-.65-7.06,1-11.11,1-1.25,0-2.5-.32-3.73-.2-.58.06-1.13.41-1.67.46s1.24,1.39.25-.58c-2.14-4.29-8.56-.52-6.42,3.76Z" transform="translate(-8.57 -14.76)" style="fill:#e8382c"/></svg>